<svg width="32" height="33" viewBox="0 0 32 33" fill="none" xmlns="http://www.w3.org/2000/svg">
<rect x="0.105225" y="0.588379" width="31.6081" height="31.6081" rx="15.804" fill="#25D366"/>
<path fill-rule="evenodd" clip-rule="evenodd" d="M6.90674 16.3925C6.90674 11.4296 10.9437 7.39258 15.9067 7.39258V7.39273H15.9119C20.8748 7.39273 24.9118 11.4297 24.9118 16.3927C24.9118 21.3554 20.8748 25.3926 15.9119 25.3926C14.0812 25.3926 12.3828 24.8477 10.9595 23.9059L7.49926 25.0115L8.62098 21.6677C7.54167 20.1861 6.90674 18.3607 6.90674 16.3925ZM12.8221 11.5195C13.0866 11.5303 13.2189 11.5461 13.3934 11.9641C13.4498 12.1002 13.5273 12.2881 13.6122 12.4941C13.8539 13.0806 14.1559 13.8132 14.2029 13.9111C14.2664 14.0434 14.33 14.2234 14.2399 14.3979C14.1612 14.5653 14.0916 14.6457 13.9758 14.7796C13.9671 14.7896 13.9581 14.8 13.9489 14.8107C13.8923 14.8764 13.8367 14.9352 13.7812 14.994C13.707 15.0725 13.6331 15.1507 13.5574 15.2446C13.5553 15.2471 13.5531 15.2496 13.551 15.2521C13.4311 15.3927 13.3008 15.5456 13.4517 15.8055C13.605 16.0647 14.1341 16.927 14.9119 17.62C15.835 18.441 16.5974 18.7493 16.9413 18.8883C16.9719 18.9007 16.9992 18.9118 17.0231 18.9217C17.2399 19.0117 17.4992 18.9905 17.658 18.8212C17.83 18.6357 18.0368 18.3456 18.252 18.0437C18.2884 17.9926 18.325 17.9413 18.3617 17.89C18.5415 17.636 18.769 17.6042 19.0071 17.6941C19.2505 17.7788 20.5364 18.4137 20.8008 18.546C20.8548 18.5731 20.9051 18.5972 20.9514 18.6195C21.132 18.7063 21.2529 18.7645 21.3034 18.8529C21.367 18.964 21.367 19.4878 21.1501 20.1017C20.9331 20.7152 20.0706 21.2234 19.3828 21.3715C18.912 21.472 18.2981 21.5515 16.2294 20.6943C13.7791 19.6797 12.1366 17.2989 11.8025 16.8146C11.7759 16.776 11.7576 16.7495 11.7479 16.7366C11.7442 16.7315 11.7397 16.7255 11.7347 16.7185C11.5666 16.4887 10.6792 15.2755 10.6792 14.0222C10.6792 12.7674 11.299 12.1374 11.5766 11.8553C11.5846 11.8472 11.5923 11.8394 11.5997 11.8318C11.8167 11.6096 12.1764 11.5091 12.5205 11.5091C12.6211 11.5096 12.7217 11.5131 12.8221 11.5195Z" fill="white"/>
</svg>
